<?xml version="1.0" encoding="UTF-8"?>
<svg width="165px" height="172px" viewBox="0 0 165 172" version="1.1" xmlns="http://www.w3.org/2000/svg" xmlns:xlink="http://www.w3.org/1999/xlink">
    <title>4182447E-38CC-49BD-B894-295D0742F226</title>
    <defs>
        <path d="M0,24.275529 C11.5479118,23.4300582 26.311162,9.88750095 52.9172341,0 L52.9172341,0 C26.311162,1.01756986 2.88356464,21.4372603 0,24.275529" id="path-1"></path>
        <path d="M18.5001425,8.91363879 C11.216138,9.91208653 5.08719785,8.91363879 0,5.19985027 L0,5.19985027 C0.290814048,9.70447496 0.663547545,14.286954 2.33197368,18.4842589 L2.33197368,18.4842589 C3.99766916,22.680198 7.1693172,26.5032558 11.4714536,27.8745848 L11.4714536,27.8745848 C14.2676375,28.7651292 17.3423476,28.5547859 20.1289742,27.6341925 L20.1289742,27.6341925 C22.9156008,26.7135991 25.4387199,25.1128046 27.7188112,23.2661543 L27.7188112,23.2661543 C34.8635526,17.4803477 39.8251406,9.05842054 41.4253005,0 L41.4253005,0 C35.6800164,4.59340595 25.7841469,7.91655692 18.5001425,8.91363879" id="path-3"></path>
        <path d="M18.5001425,8.91363879 C11.216138,9.91208653 5.08719785,8.91363879 0,5.19985027 L0,5.19985027 C0.290814048,9.70447496 0.663547545,14.286954 2.33197368,18.4842589 L2.33197368,18.4842589 C3.99766916,22.680198 7.1693172,26.5032558 11.4714536,27.8745848 L11.4714536,27.8745848 C14.2676375,28.7651292 17.3423476,28.5547859 20.1289742,27.6341925 L20.1289742,27.6341925 C22.9156008,26.7135991 25.4387199,25.1128046 27.7188112,23.2661543 L27.7188112,23.2661543 C34.8635526,17.4803477 39.8251406,9.05842054 41.4253005,0 L41.4253005,0 C35.6800164,4.59340595 25.7841469,7.91655692 18.5001425,8.91363879 L18.5001425,8.91363879 Z" id="path-5"></path>
        <path d="M18.5001425,8.91363879 C11.216138,9.91208653 5.08719785,8.91363879 0,5.19985027 L0,5.19985027 C0.290814048,9.70447496 0.663547545,14.286954 2.33197368,18.4842589 L2.33197368,18.4842589 C3.99766916,22.680198 7.1693172,26.5032558 11.4714536,27.8745848 L11.4714536,27.8745848 C14.2676375,28.7651292 17.3423476,28.5547859 20.1289742,27.6341925 L20.1289742,27.6341925 C22.9156008,26.7135991 25.4387199,25.1128046 27.7188112,23.2661543 L27.7188112,23.2661543 C34.8635526,17.4803477 39.8251406,9.05842054 41.4253005,0 L41.4253005,0 C35.6800164,4.59340595 25.7841469,7.91655692 18.5001425,8.91363879" id="path-7"></path>
    </defs>
    <g id="KYC-3O" stroke="none" stroke-width="1" fill="none" fill-rule="evenodd">
        <g id="00---landing-page-phone-alt2" transform="translate(-50.000000, -414.000000)">
            <g id="Group-13" transform="translate(0.000000, 68.000000)">
                <g id="OCTO" transform="translate(51.000000, 299.000000)">
                    <g id="image-octo-1" transform="translate(0.000000, 48.000000)">
                        <g id="Group-67">
                            <path d="M55.4805994,109.41334 C53.8613249,112.980981 49.5810337,114.797582 45.6803025,114.432896 C41.782302,114.066844 38.2624963,111.90741 35.3133961,109.328656 C32.3656613,106.749902 29.8439075,103.714949 26.9275751,101.102048 C23.9170353,98.405829 20.4231708,96.1384922 16.5087864,95.1400444 C12.5930367,94.1415967 8.21853806,94.5281367 4.85028334,96.7585952 C1.48202862,98.9904195 -0.638319814,103.221871 0.174048065,107.18015 C0.389769284,108.234598 1.03147164,109.422901 2.10598176,109.454316 C3.42898088,109.493926 4.02835819,107.88357 4.76426791,106.784049 C6.11866949,104.757104 8.92168,104.044122 11.2795948,104.662859 C13.6375097,105.281596 15.5735393,106.995758 17.0262443,108.953043 C18.4789492,110.910328 19.5329794,113.12986 20.7576752,115.237391 C24.3539391,121.424762 29.5080378,126.697003 35.6110368,130.432645 C40.6135846,133.49355 46.5786858,135.553275 52.3280659,134.396387 C56.2438156,133.608283 59.8332529,131.310897 62.1898024,128.084722 C64.5463519,124.859914 65.6413419,120.737731 65.2003422,116.768526 L55.4805994,109.41334 Z" id="Fill-1" fill="#EE3D41"></path>
                            <path d="M49.6671856,114.068483 C49.6589937,114.078044 49.6521671,114.083507 49.6467058,114.093068 L47.4703791,115.121565 C43.6802392,117.014655 38.9794281,115.580496 35.5825015,113.048181 C32.1842097,110.511769 29.6528987,107.008324 26.5891113,104.081274 C21.9292599,99.6285519 15.9900997,96.5362322 9.6768408,95.2400258 C9.36827754,95.177196 9.05698363,95.1198296 8.74568972,95.065195 C9.42015985,94.8917301 10.1123792,94.7728998 10.8100599,94.7005089 C12.7092258,94.5051901 14.660274,94.669094 16.5102883,95.1403176 C20.4233073,96.1373995 23.9185372,98.4047364 26.9263463,101.103687 C29.8413134,103.716588 32.3657978,106.750175 35.3135327,109.328929 C38.2612676,111.907684 41.7824386,114.065751 45.6818044,114.433169 C47.0061688,114.556097 48.3728583,114.430437 49.6671856,114.068483" id="Fill-3" fill="#F26F5C"></path>
                            <path d="M59.4551946,130.981723 C57.4044777,132.675397 54.9387022,133.869163 52.3295678,134.395021 C46.5774571,135.551909 40.6137211,133.492184 35.609808,130.431279 C29.506809,126.697003 24.3540756,121.423396 20.7578117,115.237391 C19.5317506,113.128494 18.4790857,110.910328 17.0263808,108.953043 C15.5723105,106.997124 13.6362809,105.281596 11.278366,104.662859 C8.92181653,104.045488 6.11880602,104.755738 4.76303912,106.784049 C4.0271294,107.88357 3.42775209,109.493926 2.10611829,109.455682 C1.03160817,109.424267 0.389905816,108.235964 0.174184598,107.178784 C-0.639548606,103.220505 1.48079983,98.9904195 4.84905454,96.7572293 C6.04371319,95.967759 7.36534698,95.4104858 8.74568972,95.0649218 C9.42152518,94.8914569 10.1123792,94.7726266 10.8100599,94.7002357 C10.4277691,94.8709689 10.048209,95.0498973 9.6768408,95.2397526 C8.42210789,95.8844412 7.24656378,96.6534235 6.21028274,97.6149929 C3.79365896,99.8563783 2.28907173,103.350262 3.21476152,106.516339 C4.1459126,103.168602 7.89509276,101.158048 11.3575548,101.386148 C14.8227476,101.616979 17.9397827,103.648021 20.371425,106.129799 C22.7989714,108.610211 24.6913107,111.559115 26.87856,114.256699 C30.0529387,118.180831 34.0533385,121.680179 38.9179885,123.03102 C43.3143323,124.248006 48.1639637,123.345169 51.547237,120.232361 C53.0327097,118.863764 53.7112758,118.220441 55.6636894,119.392354 C57.6324868,120.572462 59.1698418,122.572089 59.8142748,124.769767 C60.4068255,126.800809 60.2457173,129.021706 59.4551946,130.981723" id="Fill-5" fill="#CD202C"></path>
                            <path d="M62.1898024,128.084586 C61.4061063,129.160888 60.4817818,130.133384 59.4550581,130.981587 C57.4043412,132.67526 54.9385657,133.869026 52.3294312,134.394885 C46.5773205,135.551773 40.6135846,133.492048 35.6096715,130.431143 C29.5080378,126.696866 24.3539391,121.423259 20.7576752,115.237254 C19.5316141,113.128358 18.4789492,110.910192 17.0262443,108.952906 C15.572174,106.998353 13.6361443,105.28146 11.2782295,104.664089 C8.92168,104.045351 6.11866949,104.755602 4.76290259,106.783912 C4.02699286,107.883434 3.42761555,109.493789 2.10598176,109.455545 C1.03147164,109.42413 0.389769284,108.235827 0.174048065,107.178647 C-0.639685138,103.220369 1.48066329,98.9902829 4.84891801,96.7570927 C6.04357666,95.9676224 7.36521045,95.4103492 8.74555318,95.0647852 C9.42138865,94.8913203 10.1122427,94.77249 10.8099233,94.701465 C12.7090892,94.5047804 14.6601375,94.6686842 16.5101517,95.1399078 C20.4231708,96.1369897 23.9184006,98.4043266 26.9262098,101.103277 C29.8425422,103.716178 32.3656613,106.749765 35.3133961,109.329885 C38.261131,111.907274 41.782302,114.065341 45.6816679,114.432759 C47.0060323,114.557053 48.3727218,114.430027 49.6670491,114.068073 C52.1819762,113.361921 54.4115506,111.769321 55.4819647,109.411837 L65.2003422,116.767023 C65.6413419,120.736229 64.5463519,124.859777 62.1898024,128.084586 Z" id="Stroke-7" stroke="#000000" stroke-width="1.03560561"></path>
                            <path d="M66.31786,129.866631 C63.8015675,134.207351 60.0278115,137.806407 55.5741241,140.113354 C51.1190714,142.418935 46.0018364,143.422846 41.0074806,142.970745 C34.6573579,142.397081 28.4164611,139.536959 22.1305087,140.602334 C23.8617397,143.825777 23.0357186,148.029911 20.0320054,150.115588 C17.0255616,152.20263 12.7070413,151.960872 9.74565314,149.812366 C6.78563034,147.663859 5.22506482,143.855826 5.47218849,140.206233 C5.71931217,136.555274 7.65261119,133.121488 10.4160273,130.723028 C13.1767128,128.324568 16.711537,126.914995 20.3269154,126.367283 C28.2867553,125.165321 36.7135361,127.931199 44.3252183,125.310103 C48.3911537,123.910091 51.9095941,120.97348 54.0162892,117.222813 C56.1229844,113.47078 56.8001852,108.938838 55.8799567,104.73607 L66.31786,129.866631 Z" id="Fill-9" fill="#EE3D41"></path>
                            <path d="M66.3164947,129.865265 C63.8015675,134.207351 60.0278115,137.807773 55.5741241,140.113354 C51.1204367,142.417569 46.0018364,143.422846 41.0061153,142.970745 C34.7242588,142.401179 28.5502629,139.597057 22.3325766,140.572285 C21.5625338,139.851108 20.83072,139.068467 19.9050303,138.560365 C18.9151702,138.01675 17.6140163,137.843286 16.6855959,138.492072 C15.7571754,139.138126 15.5837793,140.763506 16.5531594,141.350828 C17.1211343,141.697758 17.8420254,141.599416 18.497381,141.720978 C19.1486407,141.84254 19.8531479,142.439423 19.6128509,143.059526 C18.6748732,143.308114 17.7177809,143.558067 16.7511314,143.480213 C15.7858472,143.402358 14.7946219,142.931135 14.3522569,142.07064 C13.7323997,140.852287 14.3986779,139.356665 15.3038878,138.336363 C17.6112857,135.737121 21.2935649,134.78921 24.7655843,134.759161 C28.238969,134.730478 31.6741246,135.47624 35.1406826,135.657901 C38.6099713,135.840927 42.3072692,135.372435 45.0474748,133.238953 C48.1822591,130.791322 48.548166,127.390316 47.1295941,124.054872 C49.9899483,122.462273 52.4120333,120.078838 54.0162892,117.222813 C55.6751581,114.273909 56.4452009,110.840123 56.2485943,107.465069 C56.4888913,107.414532 56.727823,107.380385 56.9694854,107.357166 L66.3164947,129.865265 Z" id="Fill-11" fill="#CD202C"></path>
                            <path d="M22.228812,147.572209 C21.727738,148.569291 20.9918283,149.450275 20.0320054,150.115451 C17.0255616,152.202494 12.7084066,151.960736 9.74565314,149.813595 C6.78426502,147.663722 5.22506482,143.855689 5.47355382,140.204731 C5.72067749,136.556504 7.65261119,133.122717 10.4160273,130.721526 C10.5948848,130.567183 10.7723769,130.415572 10.958061,130.269424 C10.7327825,130.974211 10.3463958,131.69129 10.1648077,132.058708 C9.19269685,134.022823 8.42265402,136.1085 8.16324243,138.29525 C7.69903221,142.187967 9.21863801,146.581957 12.7165985,148.346655 C15.6848133,149.84501 19.1814085,149.121101 22.228812,147.572209" id="Fill-13" fill="#CD202C"></path>
                            <path d="M66.3164947,129.865265 C63.8015675,134.207351 60.0278115,137.807773 55.5741241,140.113354 C51.1204367,142.417569 46.0018364,143.422846 41.0061153,142.970745 C34.7242588,142.401179 28.5502629,139.597057 22.3325766,140.572285 C22.2656757,140.581846 22.1974095,140.592773 22.1305087,140.6037 C23.3101487,142.79728 23.3019568,145.448425 22.228812,147.572346 C21.727738,148.569428 20.9918283,149.450411 20.0320054,150.115588 C17.0255616,152.20263 12.7084066,151.960872 9.74565314,149.812366 C6.78426502,147.663859 5.22506482,143.855826 5.47355382,140.204867 C5.72067749,136.555274 7.65261119,133.122854 10.4160273,130.721662 C10.5935194,130.56732 10.7723769,130.415708 10.958061,130.269561 C13.6313657,128.14564 16.9450075,126.880848 20.3269154,126.367283 C28.28539,125.165321 36.7149014,127.932565 44.3265836,125.310103 C45.2959638,124.978198 46.2353068,124.556145 47.1295941,124.054872 C49.9899483,122.462273 52.4120333,120.078838 54.0162892,117.222813 C55.6751581,114.273909 56.4452009,110.840123 56.2485943,107.465069 C56.1994426,106.547207 56.0751981,105.636175 55.8785914,104.73607 L56.9694854,107.357166 L66.3164947,129.865265 Z" id="Stroke-15" stroke="#000000" stroke-width="1.03560561"></path>
                            <path d="M22.1300991,140.60288 C21.3982853,139.323064 19.9414844,138.49535 18.469665,138.519935 C16.9964802,138.543155 15.5683511,139.418675 14.8774971,140.721711 C14.6535839,141.143763 14.5020329,141.623182 14.5525499,142.101235 C14.6017016,142.577922 14.8829584,143.049146 15.3280541,143.230806 C15.7458433,143.402905 16.2209761,143.300465 16.6565145,143.177537 C17.0920529,143.054609 17.5480712,142.912559 17.9877055,143.016365 C18.4273399,143.118805 18.8219186,143.575004 18.6758289,144.00252" id="Stroke-17" stroke="#000000" stroke-width="1.03560561" stroke-linecap="round" stroke-linejoin="round"></path>
                            <path d="M102.324189,102.582646 C103.988519,99.1925676 107.494672,96.7777173 111.254774,96.4321533 C115.016242,96.0865893 118.901955,97.8239703 121.156105,100.854826 C122.623829,102.831234 123.389775,105.226962 124.142069,107.569421 C124.894363,109.914612 125.684885,112.306243 127.190838,114.253967 C128.69406,116.201692 131.077916,117.652241 133.524577,117.3818 C130.813043,120.885245 126.94508,123.551414 122.723497,124.884499 C118.50328,126.21895 113.67959,125.89524 109.915391,123.563707 C106.619499,121.523104 104.323023,118.090684 103.173421,114.386456 C102.025183,110.680863 100.614803,106.064237 102.324189,102.582646" id="Fill-19" fill="#EE3D41"></path>
                            <path d="M102.324189,102.582646 C103.988519,99.1925676 107.494672,96.7777173 111.254774,96.4321533 C115.016242,96.0865893 118.901955,97.8239703 121.156105,100.854826 C122.623829,102.831234 123.389775,105.226962 124.142069,107.569421 C124.894363,109.914612 125.684885,112.306243 127.190838,114.253967 C128.69406,116.201692 131.077916,117.652241 133.524577,117.3818 C130.813043,120.885245 126.94508,123.551414 122.723497,124.884499 C118.50328,126.21895 113.67959,125.89524 109.915391,123.563707 C106.619499,121.523104 104.323023,118.090684 103.173421,114.386456 C102.025183,110.680863 100.614803,106.064237 102.324189,102.582646 Z" id="Stroke-21" stroke="#000000" stroke-width="1.03560561"></path>
                            <path d="M117.848061,106.010695 C119.090506,108.476083 119.419549,111.302059 120.470849,113.854861 C121.520783,116.406298 123.713494,118.860759 126.471449,118.814319 C123.430872,122.582743 118.428324,125.07135 113.704302,124.008706 C108.404114,122.816306 105.512357,117.982507 105.75402,112.792218 C105.920589,109.191796 107.015579,103.410087 111.028267,102.156223 C113.894082,101.258849 116.631557,103.599943 117.848061,106.010695" id="Fill-23" fill="#CD202C"></path>
                            <path d="M108.653559,104.443365 C106.990594,109.028575 109.1205,114.672332 113.396695,117.016157 C117.671525,119.359983 123.572456,118.117045 126.540671,114.247548 C129.502059,110.386246 129.37918,105.062102 129.095192,100.203718 C128.449394,89.2030365 127.671159,78.041183 129.966269,67.2631377 C132.264109,56.4864582 138.119985,45.9324149 147.772827,40.6260271 C149.210513,39.8365568 151.354072,39.3393817 152.204669,40.7421256 C153.034786,42.1079912 151.721344,43.7238102 150.624989,44.8861618 C144.336306,51.55022 142.514963,61.3393786 142.830353,70.4988732 C143.145743,79.6597337 145.293398,88.6758124 145.72484,97.8312094 C146.154918,106.986606 144.598448,116.777131 138.567811,123.676118 C135.954581,126.667364 133.009576,129.069921 129.42287,130.773156 C125.836163,132.477756 121.787977,133.331422 117.853113,132.801466 C113.919614,132.27151 110.125378,130.27598 107.770194,127.079855 C105.744053,124.330368 104.86888,120.846044 104.875667,117.430015 C104.883899,114.013985 105.729034,110.647126 106.878637,107.430513 L108.653559,104.443365 Z" id="Fill-25" fill="#EE3D41"></path>
                            <path d="M150.625262,44.8854789 C144.336579,51.5509029 142.516602,61.3400616 142.830626,70.4995562 C143.144651,79.6604166 145.293671,88.6778612 145.725114,97.8318923 C146.043234,104.582 145.278653,111.683135 142.431952,117.712066 C140.863194,118.754221 139.129232,119.547789 137.303794,120.027208 C140.753968,113.843935 141.806633,106.578896 141.724714,99.5009801 C141.645525,92.4216988 140.497287,85.4052473 139.825548,78.356015 C139.153808,71.3081486 138.970855,64.0977442 140.777179,57.2520259 C142.526159,50.615285 146.354528,44.2995225 152.177636,40.6991009 C152.189923,40.7127595 152.19675,40.7277841 152.206307,40.7428086 C153.033694,42.1073083 151.721617,43.7217614 150.625262,44.8854789" id="Fill-27" fill="#F26F5C"></path>
                            <path d="M147.991961,40.5118407 C147.475869,41.1141874 146.883318,41.6359481 146.455972,41.9979025 C144.453041,43.6874782 142.627603,45.4248592 141.073864,47.5474143 C139.303038,49.9581671 137.892658,52.6298001 136.837263,55.4284587 C134.293664,62.1785664 133.725689,69.5159963 133.777571,76.7359618 C133.829454,83.9504638 134.480713,91.1608682 134.270453,98.3726385 C134.163958,101.962133 133.837646,105.589872 132.632064,108.97039 C131.429214,112.349541 129.26654,115.492398 126.163158,117.29534 C123.541736,118.821012 120.202153,119.243065 117.401873,118.17086 C120.838394,118.422179 124.429197,117.000313 126.541353,114.248094 C129.500011,110.38406 129.378497,105.061282 129.093144,100.202898 C128.450076,89.2008511 127.671842,78.0430952 129.966952,67.2623181 C132.262062,56.4870046 138.120668,45.9329612 147.773509,40.6265734 C147.845872,40.5869633 147.916868,40.5487191 147.991961,40.5118407" id="Fill-29" fill="#CD202C"></path>
                            <path d="M118.542738,123.99095 C122.723361,125.512524 127.477419,124.613785 131.435494,122.582743 C135.393569,120.5517 137.470227,120.09277 140.730621,117.064646 C138.49149,124.425295 134.152489,128.09401 127.104686,131.175403 C123.834735,132.605464 120.222087,133.371715 116.67634,132.983809 C113.129228,132.595903 109.658574,130.984182 107.362099,128.252451 C105.062893,125.522085 104.068937,121.638929 105.135255,118.232461 C105.634963,116.631666 106.589325,115.145604 107.95738,114.178572 C108.626389,113.704616 108.956797,111.608013 109.150673,112.404312 C109.373221,113.313979 110.933787,115.273996 111.090799,116.168638 C111.292867,117.329624 112.095677,118.590317 112.763321,119.532765 C114.190085,121.547416 116.217591,123.145479 118.542738,123.99095" id="Fill-31" fill="#CD202C"></path>
                            <path d="M150.625262,44.8854789 C144.336579,51.5509029 142.516602,61.3400616 142.830626,70.4995562 C143.144651,79.6604166 145.293671,88.6778612 145.725114,97.8318923 C146.043234,104.582 145.278653,111.683135 142.431952,117.712066 C141.422977,119.856475 140.147764,121.867029 138.568084,123.676801 C135.954854,126.665315 133.00985,129.069238 129.423143,130.773838 C125.837802,132.477073 121.78825,133.333471 117.854751,132.802149 C113.919887,132.272193 110.125651,130.278029 107.769102,127.079172 C105.744326,124.328319 104.867788,120.845362 104.875923,117.429332 C104.885537,114.013302 105.729307,110.646443 106.880276,107.42983 L108.655197,104.444048 C106.990867,109.029258 109.119407,114.671649 113.395603,117.015474 C114.629856,117.690212 116.003372,118.071289 117.398733,118.170997 L117.401464,118.170997 C120.83935,118.422316 124.428787,117.00045 126.540944,114.248231 C129.499601,110.384197 129.378087,105.061419 129.092735,100.203035 C128.451032,89.2009877 127.671432,78.0418659 129.966542,67.2624547 C132.263017,56.4871411 138.120258,45.9330978 147.7731,40.62671 C147.845462,40.5870999 147.917824,40.5488557 147.991552,40.5119773 C149.404662,39.7989955 151.351614,39.417919 152.177636,40.6991009 C152.189923,40.7127595 152.19675,40.7277841 152.206307,40.7428086 C153.033694,42.1073083 151.721617,43.7217614 150.625262,44.8854789 Z" id="Stroke-33" stroke="#000000" stroke-width="1.03560561"></path>
                            <path d="M148.926526,135.077954 C150.563549,136.984702 153.509919,137.406755 155.855546,136.503918 C158.202538,135.602446 159.988382,133.600088 161.174849,131.383288 C162.80368,128.342871 163.450844,124.730156 162.669879,121.371493 C161.890279,118.012829 159.608822,114.968315 156.468576,113.546449 C152.75626,111.865068 148.327148,112.571221 144.661253,114.355041 C140.993992,116.137496 131.672924,125.48548 124.266041,127.584815 C115.248074,130.141716 100.200837,126.259926 111.945355,104.128806 C131.672924,66.9540423 120.321619,37.8829592 107.718312,25.1162136 C95.1150042,12.349468 75.3082466,7.23976487 58.1037967,12.3139555 C44.3495211,16.3719422 32.6241171,26.5817874 26.2985703,39.4564364 C19.9702928,52.3324512 19.0132005,67.6601948 23.2484361,81.3666559 C27.0112695,93.5447134 36.8279502,102.497962 47.5703208,109.351876 C50.5603807,111.25999 53.3251621,113.015127 55.6421173,115.192317 C55.9930056,115.522857 56.8586211,116.153886 57.1330512,116.540426 C58.1816202,120.760951 56.4544851,125.705384 53.7566046,129.196537 C50.763814,133.070132 46.5422317,135.77318 42.4012035,138.380617 C38.2574446,140.988054 34.0208438,143.652858 30.9679789,147.480014 C27.9137488,151.307169 26.2193815,156.590337 27.8905382,161.191938 C29.5780789,165.841345 34.3922119,168.73015 39.2609579,169.600207 C58.1010661,172.971163 72.1939421,153.914606 85.4785463,153.914606 C95.6433847,153.914606 95.1191002,159.010651 91.8354956,161.447355 C90.5643788,162.389802 88.7689775,163.153321 88.8399744,164.733628 C88.9027793,166.15003 90.8183291,166.577546 92.2191517,166.360374 C96.6960496,165.66788 100.648663,162.437608 102.394913,158.275815 C105.14331,160.832715 108.93345,162.30785 112.714033,162.678 C117.71658,163.169712 122.731416,161.971847 127.511416,160.414761 C132.290051,158.857674 136.967651,156.929072 141.884184,155.881453 C143.402424,155.559108 144.972547,155.321448 146.504441,155.572767 C148.036334,155.822721 149.542287,156.632679 150.309599,157.98352 C151.075546,159.334361 150.90488,161.247939 149.693838,162.220435 C149.109479,162.690293 148.364012,162.903368 147.710022,163.273517 C147.057397,163.640935 146.449828,164.281526 146.504441,165.03002 C146.589091,166.215592 148.130542,166.63901 149.317008,166.557058 C152.828622,166.307105 156.16684,164.262404 157.982721,161.245207 C159.799967,158.22801 160.047091,154.321634 158.624423,151.098191 C156.614666,146.547127 151.724075,143.859104 146.838945,142.920754 C143.482978,142.277432 140.06011,142.306115 136.631782,142.388067 C139.012907,140.520928 141.183772,138.39291 143.069285,136.016304 C144.845572,133.780382 146.589091,131.56085 148.597483,129.557125 C147.524338,131.144261 147.632198,133.570038 148.926526,135.077954" id="Fill-35" fill="#EE3D41"></path>
                            <path d="M101.14018,150.550753 C100.117552,146.330228 97.081071,142.646488 93.1380148,140.835351 C87.6098173,138.296207 81.1736792,139.468119 75.2154045,140.686471 C70.1664357,141.719066 65.1188323,142.75166 60.0698635,143.784254 C66.0199463,142.855466 71.5467785,140.209784 77.3016198,138.436891 C83.0578265,136.662631 89.5103485,135.815795 94.9470694,138.406842 C99.4785803,140.569007 102.793587,145.109144 103.474884,150.084992 C103.98415,153.806976 102.987463,159.640588 99.8117194,162.05817 C99.1522678,160.927233 100.946304,158.205063 101.218003,156.912954 C101.656272,154.821814 101.64535,152.6296 101.14018,150.550753" id="Fill-37" fill="#F26F5C"></path>
                            <path d="M110.078821,78.0277975 C110.056975,77.9963826 110.037861,77.9636018 110.016016,77.9321869 C108.946967,76.6960785 108.488218,74.9559658 108.813165,73.3551713 C109.607784,74.6841585 110.634508,75.8738275 111.833262,76.8545189 C111.184733,77.2765714 110.728715,77.6043792 110.078821,78.0277975" id="Fill-39" fill="#F26F5C"></path>
                            <path d="M111.945492,104.129899 C106.439139,114.502282 106.822796,120.867215 109.709091,124.434856 C108.663252,123.489677 107.774426,122.361472 107.110879,121.118535 C104.991896,117.153427 104.935918,112.341482 106.014524,107.97481 C107.745755,100.978847 111.985086,94.847476 114.788097,88.2640039 C116.029176,85.3533444 117.058631,82.3525377 117.875095,79.2957305 C119.428834,73.478509 120.216626,67.45231 120.230279,61.4288428 C120.245297,56.783534 119.798836,52.1368593 118.896357,47.5775999 C118.451261,45.3498732 117.89967,43.146732 117.240219,40.9736399 C116.882504,39.8017272 115.390205,37.0467763 115.422972,35.6126174 C123.781487,50.8461163 127.406423,74.9987174 111.945492,104.129899" id="Fill-41" fill="#F26F5C"></path>
                            <path d="M95.316253,160.884072 C92.7275984,164.436688 88.5237653,164.163515 89.7348078,166.02519 C89.2241766,165.753383 88.8664617,165.332696 88.8418858,164.731715 C88.7681583,163.151409 90.5635596,162.390622 91.8346764,161.446809 C95.1196463,159.01147 95.6412002,153.915426 85.4777271,153.915426 C72.1944883,153.915426 58.1002469,172.973348 39.261504,169.59966 C34.3941234,168.728238 29.5772597,165.84353 27.8897191,161.192758 C26.2212929,156.589791 27.9129296,151.307988 30.9671597,147.479467 C34.0213899,143.653678 38.2579908,140.988874 42.399019,138.378705 C46.5427778,135.773999 50.7629948,133.070951 53.7571507,129.195991 C56.4536659,125.704838 58.180801,120.759039 57.1335974,116.538514 C56.8605325,116.154706 55.9921864,115.523676 55.6426634,115.191771 C53.3270736,113.015947 50.5622922,111.259444 47.5708669,109.351329 C36.827131,102.500148 27.0104503,93.5441671 23.2503475,81.3647437 C19.0123813,67.6610143 19.9694736,52.3319049 26.2977511,39.4586218 C32.6260286,26.5826069 44.3487019,16.3713958 58.1057082,12.314775 C75.310158,7.24058439 95.1169157,12.3489217 107.720223,25.1170331 C110.050831,27.475883 112.337749,30.3961036 114.393928,33.8216945 C105.563011,29.7527809 95.2916772,29.3116063 85.6688725,30.9738648 C75.2651023,32.7672463 65.4170191,36.8457209 55.6686045,40.8914147 C50.3274564,43.1109463 44.7869709,45.4684303 40.9708899,49.8173463 C36.5595275,54.850561 35.0972653,61.9831111 35.8331751,68.6389741 C36.5690848,75.2921053 39.2874452,81.5655259 42.4113069,87.4879191 C44.8279307,92.071764 47.6022694,96.4602901 50.6141745,100.679449 C52.1119351,102.782882 53.6725006,104.842607 55.2712952,106.870918 C56.7717865,108.774934 58.1521292,110.818269 59.7495585,112.614382 C62.3709809,115.563286 65.4579788,118.10243 68.8603666,120.099326 C69.207159,120.301474 69.5621433,120.503622 69.8092669,120.817771 C70.0604866,121.129188 70.1751738,121.582656 69.9881244,121.933683 C69.7860564,122.309296 69.3218462,122.444517 68.899961,122.516908 C67.4936772,122.753203 66.031415,122.646665 64.6497069,123.012717 C61.9272505,123.740723 61.5203839,126.594017 60.1618864,128.679693 C57.8749684,132.187236 54.9613666,135.600534 51.8770993,138.440169 C49.7690388,140.381064 47.5913468,142.383423 46.4144373,144.994958 C45.2334319,147.606493 45.318082,151.015693 47.3906441,152.990735 C49.5860854,155.079143 53.0703927,154.874263 56.0126662,154.151721 C62.4720149,152.574146 70.0509293,149.85061 76.4406464,147.998496 C92.4572642,143.362748 102.286233,151.313452 95.316253,160.884072" id="Fill-43" fill="#CD202C"></path>
                            <path d="M157.982584,161.244251 C157.451473,162.1266 156.789291,162.925631 156.030171,163.622223 C156.174895,162.752166 156.849365,161.477814 156.983167,161.040737 C157.406417,159.663944 157.702693,158.250273 157.769594,156.810651 C157.90203,153.980578 157.071913,151.005722 155.049868,149.023851 C153.131588,147.138957 150.400939,146.348121 147.748114,145.915141 C141.333821,144.866157 134.754324,145.494455 128.300437,144.750058 C121.842454,144.00293 115.067715,141.50203 111.616176,135.990762 C117.009206,140.656559 124.493913,142.037449 131.616809,142.309256 C133.286601,142.373452 134.957758,142.387111 136.631645,142.387111 L136.649394,142.387111 C138.44343,142.387111 140.237466,142.373452 142.024675,142.392574 L142.045155,142.392574 C143.654872,142.462233 145.253667,142.617942 146.838808,142.921164 C151.723938,143.858148 156.615895,146.547537 158.622921,151.099967 C160.04832,154.320678 159.799831,158.229785 157.982584,161.244251" id="Fill-45" fill="#F26F5C"></path>
                            <path d="M154.342494,158.775176 C154.253747,160.886804 152.93621,162.804479 151.228189,164.048783 C149.977552,164.959815 148.531674,165.558064 147.036644,165.996507 C146.739003,165.756115 146.53557,165.439234 146.504167,165.029474 C146.449555,164.279614 147.058489,163.641755 147.709749,163.272971 C148.363739,162.902821 149.109206,162.689746 149.69493,162.218523 C150.904607,161.247392 151.075273,159.333815 150.307961,157.984339 C149.540648,156.634864 148.036061,155.82354 146.504167,155.572221 C144.973639,155.322267 143.403516,155.558562 141.883911,155.880906 C136.966013,156.927159 132.292508,158.858493 127.511143,160.412848 C122.731143,161.971301 117.716307,163.169165 112.712394,162.677454 C109.04923,162.318231 105.369681,160.92095 102.644494,158.503368 C102.845197,155.756613 102.779661,153.012589 103.082763,150.268565 C106.090572,153.997378 111.060352,155.693783 115.844448,155.813979 C120.629909,155.935541 125.329355,154.680311 129.953708,153.434641 C134.57533,152.191703 139.277507,150.936473 144.061603,151.060767 C146.452285,151.122231 148.901677,151.559308 150.916895,152.841855 C152.933479,154.127135 154.440797,156.386277 154.342494,158.775176" id="Fill-47" fill="#CD202C"></path>
                            <path d="M161.201199,131.333843 L159.360743,132.449756 C161.001862,129.778122 161.8784,126.565607 161.397806,123.465092 C160.913116,120.37004 158.94978,117.444356 156.079869,116.186394 C152.618772,114.671649 148.532357,115.730195 145.246021,117.597333 C141.958321,119.464471 139.151214,122.08147 135.885359,123.982755 C132.603119,125.893601 128.882611,127.027269 125.096567,127.32093 C132.358726,124.805006 141.1323,116.071661 144.661663,114.354768 C148.326193,112.572314 152.753939,111.864795 156.468986,113.547542 C159.609232,114.969408 161.890688,118.012556 162.668923,121.37122 C163.448523,124.712127 162.808186,128.307085 161.201199,131.333843" id="Fill-49" fill="#F26F5C"></path>
                            <path d="M159.162497,134.213634 C158.229981,135.206619 157.126799,136.016577 155.857048,136.504191 C153.50869,137.407028 150.565051,136.984976 148.926662,135.079593 C147.632335,133.568946 147.523109,131.143168 148.598984,129.557399 C146.587862,131.562489 144.847074,133.780655 143.069421,136.016577 C141.308153,138.234743 139.297031,140.239833 137.102955,142.011361 C134.495186,142.242192 131.890147,142.321412 129.309685,142.08102 C123.172552,141.507357 117.173318,139.365679 112.112061,135.834917 C112.954466,136.423605 116.250359,136.532874 117.30712,136.516484 C118.668348,136.493264 120.126514,136.128578 121.474089,135.84038 C124.473706,135.194326 127.357271,134.040169 130.07017,132.621035 C136.128113,129.456325 141.593506,125.136092 147.957282,122.646119 C149.927445,121.873039 152.050524,121.278887 154.140835,121.594402 C156.232512,121.911283 158.275037,123.341344 158.737882,125.405167 C159.199361,127.470356 157.513186,129.902963 155.40376,129.724034 C156.621629,129.366177 157.051706,127.630162 156.310335,126.598934 C155.568964,125.569071 154.037071,125.323215 152.87791,125.836781 C151.71875,126.347614 150.917305,127.46899 150.49542,128.665488 C149.856448,130.497114 150.091284,132.7385 151.497568,134.077048 C152.678573,135.206619 154.467148,135.503011 156.082326,135.240765 C157.154106,135.064569 158.172637,134.675297 159.162497,134.213634" id="Fill-51" fill="#CD202C"></path>
                            <path d="M161.201199,131.333843 C161.193008,131.3516 161.18345,131.365258 161.175258,131.383014 C160.630494,132.400584 159.958754,133.370349 159.162771,134.213088 C158.230254,135.206072 157.127072,136.017396 155.857321,136.503645 C153.508963,137.406482 150.565324,136.985795 148.926935,135.079047 C147.632608,133.569765 147.522017,131.142622 148.599257,129.556852 C146.588135,131.561943 144.845981,133.780109 143.069695,136.017396 C141.308426,138.235562 139.297304,140.240653 137.103228,142.010815 C136.946216,142.139206 136.790569,142.2635 136.632191,142.387793 L136.64994,142.387793 C138.446707,142.344086 140.239378,142.318134 142.025222,142.393257 L142.045701,142.393257 C143.654053,142.46155 145.252848,142.618625 146.837989,142.920481 C151.724484,143.858831 156.616441,146.54822 158.622102,151.10065 C160.047501,154.319995 159.800377,158.229103 157.98313,161.243568 C157.452019,162.127283 156.789837,162.926314 156.030717,163.622906 C154.198452,165.307018 151.802308,166.379222 149.316053,166.555419 C148.540548,166.610054 147.612128,166.44615 147.037327,165.99678 C146.738321,165.756388 146.536253,165.439507 146.503485,165.029747 C146.448872,164.279887 147.059172,163.642028 147.709066,163.273244 C148.364422,162.903095 149.109889,162.69002 149.694247,162.218796 C150.90529,161.2463 151.075955,159.334088 150.307278,157.984613 C149.541331,156.633772 148.035379,155.823813 146.503485,155.572494 C144.972956,155.321175 143.404199,155.557469 141.884593,155.88118 C136.966696,156.927433 132.291826,158.857401 127.51046,160.413122 C122.73046,161.971574 117.715625,163.169438 112.711712,162.677727 C109.049912,162.318504 105.368998,160.921224 102.643811,158.503642 C102.560527,158.428519 102.475876,158.353396 102.393957,158.275542 C100.647707,162.4387 96.6978245,165.667606 92.218196,166.3601 C91.4112894,166.483028 90.4296213,166.394247 89.7346713,166.024097 C89.2240401,165.753656 88.8676905,165.332969 88.8417493,164.731989 C88.7680218,163.151682 90.5634231,162.389529 91.8345399,161.447082 C95.1208751,159.011744 95.6410636,153.915699 85.4775905,153.915699 C72.1957171,153.915699 58.1001104,172.972256 39.2613675,169.599933 C34.3939868,168.728511 29.5771232,165.843803 27.8895825,161.191665 C26.2211564,156.590064 27.912793,151.308262 30.9670232,147.478375 C34.0226187,143.653951 38.2578542,140.987781 42.3988824,138.378978 C46.5426413,135.774272 50.7628583,133.069858 53.7570142,129.196264 C56.4535294,125.705111 58.1806645,120.759312 57.1334608,116.538787 C56.860396,116.154979 55.9920498,115.523949 55.6438922,115.192044 C53.3269371,113.01622 50.5621556,111.259717 47.5707304,109.351603 C36.8269945,102.500421 27.0103138,93.5444403 23.250211,81.3650169 C19.0122448,67.6612875 19.9707024,52.332178 26.2976145,39.4575291 C32.6258921,26.5828801 44.3485653,16.371669 58.1055717,12.3136823 C75.3100215,7.2394917 95.1167792,12.3491948 107.720087,25.1159404 C110.050695,27.4761562 112.337613,30.3963768 114.393791,33.8206018 C114.743314,34.4038264 115.08601,35.0007097 115.423245,35.6126174 C123.78176,50.8461163 127.406696,74.9987174 111.945765,104.129899 C106.439412,114.502282 106.823069,120.867215 109.709364,124.434856 C112.983411,128.483282 119.474162,128.942213 124.265085,127.583176 C124.539515,127.505322 124.813945,127.419273 125.093837,127.32093 L125.096567,127.32093 C132.358726,124.805006 141.1323,116.071661 144.661663,114.354768 C148.326193,112.572314 152.753939,111.864795 156.468986,113.547542 C159.609232,114.969408 161.890688,118.012556 162.668923,121.37122 C163.448523,124.712127 162.808186,128.307085 161.201199,131.333843 Z" id="Stroke-53" stroke="#000000" stroke-width="1.03560561"></path>
                            <path d="M22.3181042,76.7806256 C22.9161162,64.7364229 26.4509404,56.2625928 35.4156589,48.0769604 C44.3790121,39.8926938 65.9210968,27.9796142 90.4709906,23.6047468 C97.7973201,22.3003451 109.870882,24.1237757 113.135372,31.589597 C106.691042,18.989487 98.1700536,7.71153484 85.2158579,2.91324905 C72.2630275,-1.88503674 57.2444617,-0.648928389 45.0766927,5.85395765 C32.9089238,12.3568437 23.7161961,23.938018 19.8345795,37.0585227 C15.9515976,50.1776617 19.1805893,68.3286494 22.3181042,76.7806256" id="Fill-55" fill="#FFFFFF"></path>
                            <path d="M43.5099832,41.9536484 C40.219552,44.1035208 37.4820771,46.1905634 35.4136109,48.075458 C26.4516231,56.2624563 22.9181642,64.7362863 22.3187869,76.780489 C19.1812719,68.3285128 15.9495496,50.1788909 19.8352622,37.0583862 C22.8976843,26.7037592 29.2710175,17.306604 37.8042936,10.6070333 C34.9207289,13.1256894 32.8672814,16.6195736 33.6782839,21.3482002 C34.6353762,26.9646395 39.1655217,37.2578025 43.5099832,41.9536484" id="Fill-57" fill="#C4C4C2"></path>
                            <path d="M112.541456,30.4478699 C108.602496,23.9381545 97.4068374,22.3701409 90.4709906,23.6035175 C71.5858267,26.9690103 54.4783149,34.7967859 43.5093006,41.9539216 C40.2188693,44.103794 37.4813944,46.1894708 35.4142936,48.0757311 C26.4509404,56.2613636 22.9174815,64.7365595 22.3181042,76.7807622 C19.1805893,68.3274201 15.9502323,50.1791641 19.8359449,37.0586593 C22.898367,26.7040324 29.2717002,17.3068771 37.8049762,10.6073065 C38.6323627,9.95715445 39.4774983,9.33431974 40.3458445,8.73607062 C41.8654503,7.68981758 43.443765,6.72688234 45.0753274,5.85409424 C57.2430964,-0.651523533 72.2630275,-1.88626602 85.2158579,2.91201977 C97.7782056,7.56552381 106.168123,18.3121542 112.541456,30.4478699 Z" id="Stroke-59" stroke="#000000" stroke-width="1.03560561" stroke-linecap="round" stroke-linejoin="round"></path>
                            <path d="M113.136191,31.5909628 C112.939584,31.2098863 112.744343,30.8288098 112.54091,30.4477333 C112.764823,30.8151512 112.962795,31.1948618 113.136191,31.5909628 Z" id="Stroke-61" stroke="#000000" stroke-width="1.03560561" stroke-linecap="round" stroke-linejoin="round"></path>
                            <path d="M33.345964,14.548375 C26.8374637,22.3652237 35.0362353,38.6504391 38.9615423,44.9743967" id="Stroke-63" stroke="#000000" stroke-width="1.03560561" stroke-linecap="round" stroke-linejoin="round"></path>
                            <path d="M88.3337122,23.8012948 C61.7262748,33.6887958 46.9630246,47.231353 35.4151128,48.0768238 C38.3000428,45.2371893 61.7262748,24.8174988 88.3337122,23.8012948" id="Fill-65" fill="#FFFFFF"></path>
                        </g>
                        <g id="Group-70" transform="translate(35.415386, 23.800885)">
                            <mask id="mask-2" fill="white">
                                <use xlink:href="#path-1"></use>
                            </mask>
                            <g id="Clip-69"></g>
                            <path d="M55.0556048,-0.195728538 C45.1897723,17.306473 8.68646541,34.4221347 -11.114831,38.7259771 C-10.4785899,38.5880247 -8.72687901,34.2814505 -8.30772449,33.5766639 C-7.24140632,31.7723554 -6.10545661,30.009023 -4.90397134,28.2880323 C-2.98705621,25.5453742 -0.824382732,21.8575372 2.17250381,20.1365465 C4.43348063,18.8376084 7.18324351,17.7817943 9.55344626,16.6180768 C13.7299729,14.5651808 33.5312693,4.37992116 55.0556048,-0.195728538" id="Fill-68" fill="#C4C4C2" mask="url(#mask-2)"></path>
                        </g>
                        <g id="Group-93" transform="translate(35.415113, 18.612750)">
                            <path d="M52.9185994,5.18854466 C26.311162,15.0760456 11.5479118,28.6186029 0,29.4640737 C2.88492996,26.6244391 26.311162,6.20474865 52.9185994,5.18854466 Z" id="Stroke-71" stroke="#000000" stroke-width="1.03560561" stroke-linecap="round" stroke-linejoin="round"></path>
                            <path d="M50.7744943,6.03019103 C56.2876733,3.3804118 75.0827258,4.22724846 81.6253592,20.4865124 C85.7090438,19.8459214 89.5756418,15.1131972 90.5340994,11.090723 C92.2311973,3.967734 82.89238,-6.92640988 50.7744943,6.03019103" id="Fill-73" fill="#C1C3C3"></path>
                            <path d="M50.7744943,6.03019103 C56.2876733,3.3804118 75.0827258,4.22724846 81.6253592,20.4865124 C85.7090438,19.8459214 89.5756418,15.1131972 90.5340994,11.090723 C92.2311973,3.967734 82.89238,-6.92640988 50.7744943,6.03019103 Z" id="Stroke-75" stroke="#000000" stroke-width="1.03560561" stroke-linecap="round" stroke-linejoin="round"></path>
                            <path d="M56.1118195,10.9347412 C55.9684605,11.5807956 56.8135962,11.9687014 57.1863297,11.423721 C58.876601,8.9610654 61.3874321,6.76885114 64.2873806,6.4014333 C67.9601027,5.93567313 75.6072833,9.27384862 80.9607194,18.974226 C80.3913792,15.0405331 78.1017306,9.02252935 75.2727789,6.3140179 C71.9714251,3.15340494 67.86453,2.00471199 63.5091459,3.38560209 C60.018012,4.49058735 56.880497,7.46817432 56.1118195,10.9347412" id="Fill-77" fill="#000000"></path>
                            <path d="M56.1118195,10.9347412 C55.9684605,11.5807956 56.8135962,11.9687014 57.1863297,11.423721 C58.876601,8.9610654 61.3874321,6.76885114 64.2873806,6.4014333 C67.9601027,5.93567313 75.6072833,9.27384862 80.9607194,18.974226 C80.3913792,15.0405331 78.1017306,9.02252935 75.2727789,6.3140179 C71.9714251,3.15340494 67.86453,2.00471199 63.5091459,3.38560209 C60.018012,4.49058735 56.880497,7.46817432 56.1118195,10.9347412 Z" id="Stroke-79" stroke="#000000" stroke-width="1.03560561" stroke-linecap="round" stroke-linejoin="round"></path>
                            <path d="M101.216942,123.77477 C90.5168963,124.177701 80.5527605,122.294172 73.7548115,114.555177" id="Stroke-81" stroke="#000000" stroke-width="1.03560561" stroke-linecap="round" stroke-linejoin="round"></path>
                            <path d="M66.9797999,139.663611 C68.2386288,136.511194 68.5663066,132.137692 67.2910938,128.428001 C66.0131504,124.719676 63.2524649,121.545404 59.7545044,119.772511 C54.3805885,117.043511 47.90076,117.720981 42.1172468,119.406459 C36.3337337,121.091937 30.8082668,123.717131 24.8786639,124.782506 C23.6362189,125.006508 22.2941053,125.145826 21.1622515,124.587187 C20.0303978,124.027182 19.2931227,122.511071 19.9771501,121.449794" id="Stroke-83" stroke="#000000" stroke-width="1.03560561" stroke-linecap="round" stroke-linejoin="round"></path>
                            <path d="M113.000782,111.236534 C113.981084,109.594763 115.435155,108.241191 117.143175,107.380695 C118.003329,106.94635 119.05736,106.643128 119.907957,107.095229 C120.936046,107.641576 121.170881,109.109881 120.68073,110.167061 C120.191944,111.224241 119.180239,111.937223 118.163072,112.505423" id="Stroke-85" stroke="#000000" stroke-width="1.03560561" stroke-linecap="round" stroke-linejoin="round"></path>
                            <path d="M30.0920177,65.1052433 C32.5181987,65.4166607 35.059067,64.7064106 36.9732515,63.1848363" id="Stroke-87" stroke="#000000" stroke-width="1.03560561" stroke-linecap="round" stroke-linejoin="round"></path>
                            <path d="M73.6436741,55.0745997 C74.6116889,56.0989989 75.5605892,57.306424 76.5299694,58.3308232 C75.6261248,59.0055608 75.2342768,59.2404897 74.3290668,59.9152273" id="Stroke-89" stroke="#000000" stroke-width="1.03560561" stroke-linecap="round" stroke-linejoin="round"></path>
                            <path d="M32.9054047,65.1131654 C33.197584,69.6191559 33.5689522,74.201635 35.236013,78.3989399 C36.9030738,82.594879 40.0760872,86.4179367 44.3768583,87.7892658 C47.1730422,88.6798101 50.2477522,88.4694668 53.0343789,87.5488734 C55.8210055,86.6269142 58.3441246,85.0274856 60.6242159,83.1808353 C67.7689573,77.3936628 72.7305453,68.9717356 74.3293399,59.914681 C68.5867864,64.5080869 58.6909169,67.829872 51.4069125,68.8283197 C44.122908,69.8267675 37.9939678,68.8283197 32.9054047,65.1131654" id="Fill-91" fill="#000000"></path>
                        </g>
                        <g id="Group-103" transform="translate(68.321064, 78.527021)">
                            <g id="Group-96">
                                <mask id="mask-4" fill="white">
                                    <use xlink:href="#path-3"></use>
                                </mask>
                                <g id="Clip-95"></g>
                                <path d="M29.1671471,11.4720416 C34.1574069,9.52295143 35.8176411,6.09736055 36.1262044,2.01888592 C36.0811487,2.60620812 29.4101748,4.06905016 28.6346707,4.27119826 C26.0419201,4.94593586 23.4232283,5.523697 20.785422,5.99901823 C18.1844795,6.47024185 15.5657878,6.84175729 12.9361734,7.11766214 C11.603617,7.25698043 10.26833,7.37034727 8.93167763,7.45912853 C8.15344286,7.50966556 6.13958971,7.23239485 5.60574796,7.92762043 C4.37286024,9.53797595 14.2113862,17.3083852 29.1671471,11.4720416" id="Fill-94" fill="#FFFFFF" mask="url(#mask-4)"></path>
                            </g>
                            <g id="Group-99">
                                <mask id="mask-6" fill="white">
                                    <use xlink:href="#path-5"></use>
                                </mask>
                                <g id="Clip-98"></g>
                                <path d="M29.1671471,11.4720416 C34.1574069,9.52295143 35.8176411,6.09736055 36.1262044,2.01888592 C36.0811487,2.60620812 29.4101748,4.06905016 28.6346707,4.27119826 C26.0419201,4.94593586 23.4232283,5.523697 20.785422,5.99901823 C18.1844795,6.47024185 15.5657878,6.84175729 12.9361734,7.11766214 C11.603617,7.25698043 10.26833,7.37034727 8.93167763,7.45912853 C8.15344286,7.50966556 6.13958971,7.23239485 5.60574796,7.92762043 C4.37286024,9.53797595 14.2113862,17.3083852 29.1671471,11.4720416 Z" id="Stroke-97" stroke="#000000" stroke-width="1.03560561" stroke-linecap="round" stroke-linejoin="round" mask="url(#mask-6)"></path>
                            </g>
                            <g id="Group-102">
                                <mask id="mask-8" fill="white">
                                    <use xlink:href="#path-7"></use>
                                </mask>
                                <g id="Clip-101"></g>
                                <path d="M0.784788331,18.1239436 C4.95858431,16.5887107 9.48190327,16.0136813 13.9055536,16.4575876 C16.8369046,16.7512487 19.7600636,17.5052065 22.284548,19.0199514 C24.8103977,20.5374281 26.9116316,22.8689606 27.7990923,25.6771803 C25.4480041,27.5170012 23.1187611,29.4251154 20.3744595,30.5956622 C17.6274273,31.7634773 14.5950423,32.3794827 11.6377501,31.9820158 C8.2968019,31.5299143 5.15246034,29.754289 3.0430345,27.122266 C0.933608665,24.4916089 0.498070256,21.4839729 0.784788331,18.1239436" id="Fill-100" fill="#F289AA" mask="url(#mask-8)"></path>
                            </g>
                        </g>
                        <g id="Group-162" transform="translate(36.421357, 8.838762)">
                            <path d="M31.8991608,74.8871538 C32.1913401,79.3931444 32.5627083,83.9756234 34.2297691,88.1729284 C35.8968299,92.3688674 39.0698433,96.1919252 43.3706144,97.5632542 C46.1667983,98.4537986 49.2415083,98.2434553 52.028135,97.3228619 C54.8147616,96.4009026 57.3378806,94.801474 59.617972,92.9548238 C66.7627134,87.1676513 71.7243014,78.7457241 73.323096,69.6886694 C67.5805425,74.2820754 57.684673,77.6038605 50.4006685,78.6023082 C43.1166641,79.600756 36.9877239,78.6023082 31.8991608,74.8871538 Z" id="Stroke-104" stroke="#000000" stroke-width="1.03560561" stroke-linecap="round" stroke-linejoin="round"></path>
                            <path d="M23.0738419,36.3041829 C16.1857815,35.9381309 9.20760965,39.1998179 5.06794677,44.7192807 C5.12665571,46.2053425 5.79976053,47.7501365 6.79644717,48.8537558 C9.44517605,42.217015 15.9960014,37.2657522 23.0738419,36.3041829" id="Fill-106" fill="#000000"></path>
                            <path d="M23.0738419,36.3041829 C16.1857815,35.9381309 9.20760965,39.1998179 5.06794677,44.7192807 C5.12665571,46.2053425 5.79976053,47.7501365 6.79644717,48.8537558 C9.44517605,42.217015 15.9960014,37.2657522 23.0738419,36.3041829 Z" id="Stroke-108" stroke="#000000" stroke-width="1.03560561" stroke-linecap="round" stroke-linejoin="round"></path>
                            <path d="M67.6175428,27.5967898 C71.1783083,26.3948281 75.241513,26.7731728 78.5169256,28.6143596 C78.2779939,30.084031 78.3435295,31.6506788 78.1045977,33.1203502 C75.3548349,30.0621772 71.1346179,27.9136706 67.0359147,27.5981556 C67.2789424,27.6582537 67.3745151,27.5366917 67.6175428,27.5967898" id="Fill-110" fill="#000000"></path>
                            <path d="M67.6175428,27.5967898 C71.1783083,26.3948281 75.241513,26.7731728 78.5169256,28.6143596 C78.2779939,30.084031 78.3435295,31.6506788 78.1045977,33.1203502 C75.3548349,30.0621772 71.1346179,27.9136706 67.0359147,27.5981556 C67.2789424,27.6582537 67.3745151,27.5366917 67.6175428,27.5967898 Z" id="Stroke-112" stroke="#000000" stroke-width="1.03560561" stroke-linecap="round" stroke-linejoin="round"></path>
                            <g id="Group-117" transform="translate(5.690044, 36.136080)">
                                <path d="M27.7664053,7.48163037 C25.688382,3.70091444 21.9228179,1.02245203 17.8172881,0.239811051 C12.274072,-0.81736891 6.24343518,1.68762857 2.89702565,6.43537733 C-0.449383885,11.1858578 -0.946361882,17.9455266 1.66550325,23.1604014 C4.27736838,28.3752762 9.87246682,31.7885743 15.5057943,31.6041824 C21.1391218,31.4197906 26.5348829,27.6486357 28.8532034,22.2725888 C31.1715238,16.8965418 30.300447,10.1819466 26.6987218,5.65819982" id="Fill-114" fill="#FFFFFF"></path>
                                <path d="M27.7664053,7.48163037 C25.688382,3.70091444 21.9228179,1.02245203 17.8172881,0.239811051 C12.274072,-0.81736891 6.24343518,1.68762857 2.89702565,6.43537733 C-0.449383885,11.1858578 -0.946361882,17.9455266 1.66550325,23.1604014 C4.27736838,28.3752762 9.87246682,31.7885743 15.5057943,31.6041824 C21.1391218,31.4197906 26.5348829,27.6486357 28.8532034,22.2725888 C31.1715238,16.8965418 30.300447,10.1819466 26.6987218,5.65819982" id="Stroke-116" stroke="#000000" stroke-width="1.03560561" stroke-linecap="round" stroke-linejoin="round"></path>
                            </g>
                            <path d="M82.0267645,40.3083544 C83.5436396,48.5691095 79.8832055,56.164688 73.8484727,57.2737708 C67.8151052,58.3828537 61.6916263,52.5861201 60.1747512,44.326731 C58.657876,36.0673418 62.3169448,28.4703974 68.3516776,27.3613146 C74.3864104,26.2508658 80.508524,32.0475994 82.0267645,40.3083544" id="Fill-118" fill="#FFFFFF"></path>
                            <path d="M82.0267645,40.3083544 C83.5436396,48.5691095 79.8832055,56.164688 73.8484727,57.2737708 C67.8151052,58.3828537 61.6916263,52.5861201 60.1747512,44.326731 C58.657876,36.0673418 62.3169448,28.4703974 68.3516776,27.3613146 C74.3864104,26.2508658 80.508524,32.0475994 82.0267645,40.3083544 Z" id="Stroke-120" stroke="#000000" stroke-width="1.03560561" stroke-linecap="round" stroke-linejoin="round"></path>
                            <path d="M31.3857989,53.6523148 C31.3857989,60.5622288 26.5784925,66.1636435 20.6475243,66.1636435 C14.7179215,66.1636435 9.91061506,60.5622288 9.91061506,53.6523148 C9.91061506,46.7424008 14.7179215,41.1409861 20.6475243,41.1409861 C26.5784925,41.1409861 31.3857989,46.7424008 31.3857989,53.6523148" id="Fill-122" fill="#000000"></path>
                            <path d="M31.3857989,53.6523148 C31.3857989,60.5622288 26.5784925,66.1636435 20.6475243,66.1636435 C14.7179215,66.1636435 9.91061506,60.5622288 9.91061506,53.6523148 C9.91061506,46.7424008 14.7179215,41.1409861 20.6475243,41.1409861 C26.5784925,41.1409861 31.3857989,46.7424008 31.3857989,53.6523148 Z" id="Stroke-124" stroke="#000000" stroke-width="1.03560561" stroke-linecap="round" stroke-linejoin="round"></path>
                            <path d="M14.9991782,59.7999392 C18.0274672,67.3996153 29.8566358,63.2501157 28.6196521,52.5458271" id="Stroke-126" stroke="#9A5225" stroke-width="2.76206918" stroke-linecap="round" stroke-linejoin="round"></path>
                            <path d="M77.8348097,41.7329522 C79.5810593,47.85203 77.2941413,53.8932535 72.727132,55.22907 C68.1601226,56.5621548 63.0415223,52.6844625 61.2952727,46.5640188 C59.5476578,40.444941 61.8345758,34.4023516 66.4029504,33.067901 C70.9699598,31.7348161 76.0885601,35.6138744 77.8348097,41.7329522" id="Fill-128" fill="#000000"></path>
                            <path d="M77.8348097,41.7329522 C79.5810593,47.85203 77.2941413,53.8932535 72.727132,55.22907 C68.1601226,56.5621548 63.0415223,52.6844625 61.2952727,46.5640188 C59.5476578,40.444941 61.8345758,34.4023516 66.4029504,33.067901 C70.9699598,31.7348161 76.0885601,35.6138744 77.8348097,41.7329522 Z" id="Stroke-130" stroke="#000000" stroke-width="1.03560561" stroke-linecap="round" stroke-linejoin="round"></path>
                            <path d="M65.6895686,49.7427978 C66.3244443,50.61422 67.0207596,51.4528615 67.8754526,52.1071111 C68.7315108,52.7627266 69.7595999,53.2271209 70.8368407,53.2694627 C72.2963722,53.326829 73.7245013,52.5837982 74.6679403,51.467886 C75.6127446,50.3519738 76.102896,48.9014246 76.2326018,47.444046 C76.3595769,45.9893991 76.1465864,44.5224595 75.807986,43.0992276" id="Stroke-132" stroke="#9A5225" stroke-width="2.76206918" stroke-linecap="round" stroke-linejoin="round"></path>
                            <path d="M25.2791135,48.8357264 C25.2791135,50.343642 24.0571483,51.5647259 22.5511958,51.5647259 C21.0438779,51.5647259 19.8232781,50.343642 19.8232781,48.8357264 C19.8232781,47.3278108 21.0438779,46.1053611 22.5511958,46.1053611 C24.0571483,46.1053611 25.2791135,47.3278108 25.2791135,48.8357264" id="Fill-134" fill="#FFFFFF"></path>
                            <path d="M73.6761688,38.4450406 C74.2359517,39.8436869 73.8058746,41.3338463 72.7136153,41.7722891 C71.6199906,42.210732 70.2806076,41.4335545 69.7194594,40.0335423 C69.1569458,38.6348959 69.5883883,37.1447365 70.6806476,36.7062937 C71.7729069,36.266485 73.1150206,37.0463942 73.6761688,38.4450406" id="Fill-136" fill="#FFFFFF"></path>
                            <path d="M17.6139105,60.9230905 C17.6139105,61.7125608 16.9735735,62.3531517 16.1844161,62.3531517 C15.3952588,62.3531517 14.7549217,61.7125608 14.7549217,60.9230905 C14.7549217,60.1336202 15.3952588,59.4930292 16.1844161,59.4930292 C16.9735735,59.4930292 17.6139105,60.1336202 17.6139105,60.9230905" id="Fill-138" fill="#FFFFFF"></path>
                            <path d="M68.6708904,49.7974324 C68.9330327,50.5418291 68.7214074,51.2971528 68.1943923,51.4815446 C67.6687425,51.6686682 67.0284054,51.2165667 66.7648979,50.47217 C66.5013903,49.7277732 66.7130156,48.9738154 67.2400307,48.7880577 C67.7670458,48.6009341 68.4073829,49.0530356 68.6708904,49.7974324" id="Fill-140" fill="#FFFFFF"></path>
                            <path d="M18.7084909,105.832614 C20.3072855,107.182089 22.7757916,109.702111 24.3363571,111.969448" id="Stroke-142" stroke="#000000" stroke-width="1.03560561" stroke-linecap="round" stroke-linejoin="round"></path>
                            <path d="M11.3499398,20.2793015 C8.20423292,22.0207801 5.05852604,23.9493823 1.92237643,26.0623764 C1.25746356,22.539809 0.618491848,18.9762657 0,15.3690147 C3.05696081,13.3475337 6.12347889,11.5090786 9.19136229,9.85364952 C9.88904294,13.3693875 10.6085688,16.8441496 11.3499398,20.2793015" id="Fill-144" fill="#790008"></path>
                            <path d="M6.50727151,13.5726283 C4.86888251,14.5260025 3.23322416,15.5326454 1.59893113,16.5884595 C2.51915962,17.2358798 3.4503107,17.8805684 4.38692308,18.5252569 C6.0376,17.498126 7.68964224,16.522898 9.34168448,15.5995728 C8.38868821,14.9248353 7.44388389,14.2487318 6.50727151,13.5726283" id="Fill-146" fill="#FFFFFF"></path>
                            <path d="M9.34195755,15.6001192 C7.6899153,16.5234443 6.03787306,17.4986724 4.38719614,18.5258033 C3.86564231,20.0774266 3.34135783,21.6427085 2.8143427,23.2202833 C4.47594222,22.1330543 6.13754173,21.0977282 7.80187189,20.1143049 C8.31932975,18.5968283 8.83269163,17.0930103 9.34195755,15.6001192" id="Fill-148" fill="#EC1C24"></path>
                            <path d="M17.6712542,13.3045089 C17.3859014,13.7798301 16.9899574,14.1486138 16.5312085,14.3671523 C15.4184693,14.9012058 14.3344019,14.3698841 14.0613371,13.1201171 C13.7910029,11.8730818 14.4395319,10.4607768 15.5399831,9.94447958 C15.9932708,9.73003868 16.4602116,9.69725791 16.8848274,9.85023485 L16.9053073,9.85843005 C17.1196632,9.41452373 17.3312884,8.97334915 17.5429137,8.5349063 L17.5210685,8.52534524 C16.8124653,8.22485481 16.0082893,8.25080626 15.2478038,8.60866304 C13.471517,9.43774345 12.3628738,11.7979592 12.7833936,13.7689032 C13.2025482,15.7412131 15.0225253,16.5566349 16.8343104,15.6865785 C17.6084492,15.315063 18.2870154,14.664911 18.7457643,13.8481234 C18.7512256,13.8399282 18.7553215,13.8303672 18.7594175,13.8194402 C18.4003373,13.639146 18.0426223,13.4602176 17.6862727,13.2799233 C17.6808114,13.2881185 17.6767155,13.2963137 17.6712542,13.3045089 M20.0865126,13.9765148 C20.4974752,13.7948547 20.9084378,13.6172921 21.3194003,13.4438272 C20.7869239,11.2570764 20.2640047,9.05393522 19.7506429,6.83576951 C19.3478722,7.00240511 18.942371,7.17313831 18.5368697,7.34660324 C19.0434049,9.57296414 19.5608628,11.7829347 20.0865126,13.9765148 M25.5751158,9.18096072 C25.5027536,9.11676504 22.4102943,5.7649309 22.4184863,5.76219916 C22.0239076,5.91244438 21.6279636,6.06542132 21.2320196,6.22113 C21.7535734,8.43383224 22.2846845,10.6274124 22.8226222,12.805968 C23.2335848,12.6393324 23.6445474,12.4754285 24.05551,12.3142564 C23.7291975,11.0166841 23.406981,9.71364829 23.0874951,8.40514907 C23.2103743,8.54856495 26.1758584,11.5684938 26.1840503,11.565762 C26.186781,11.556201 27.231254,7.09391811 27.2749443,6.90269693 C27.6053528,8.1975375 27.9412225,9.48554874 28.2798229,10.7694624 C28.6866895,10.6301441 29.0935561,10.4935575 29.5017881,10.3624344 C28.9297172,8.21939135 28.3672037,6.06132373 27.8128821,3.88686572 C27.421034,4.01115949 27.0278207,4.13818499 26.633242,4.26657635 C26.6359726,4.25838116 25.6024222,9.07169147 25.5751158,9.18096072 M33.0284204,8.05685334 C32.6324764,8.16612259 32.2365324,8.27948943 31.8405884,8.39422214 C31.7026906,7.89294947 31.5675235,7.39031094 31.4309911,6.88630654 C31.8269351,6.77157383 32.2201485,6.66093872 32.6147272,6.55303534 C33.1676834,6.40142426 33.4680548,6.73742719 33.5677234,7.0980157 C33.6687574,7.46406768 33.5813767,7.9038764 33.0284204,8.05685334 M30.7401371,4.29389366 C31.1074093,4.19008788 31.4733162,4.08901383 31.8405884,3.9906715 C32.3020679,3.86501187 32.6474949,4.05623305 32.7676435,4.50013937 C32.887792,4.94267982 32.6843587,5.27731688 32.2201485,5.40297652 C31.8542416,5.50405057 31.4856041,5.60649049 31.1169666,5.71166214 C30.9913567,5.24180438 30.8657469,4.76784902 30.7401371,4.29389366 M33.6168751,5.62424674 C33.8421536,5.39751305 34.1520822,4.85389855 33.9554755,4.13818499 C33.6482776,3.02363867 32.7567209,2.49095109 31.6180405,2.79417325 C30.8220565,3.00724828 30.0260725,3.23261611 29.2273579,3.46891085 C29.7871408,5.63517367 30.3578463,7.78504609 30.9353784,9.91852813 C31.7805141,9.65901367 32.6229191,9.41042614 33.4625935,9.17822899 C34.6040045,8.85998231 35.1132704,7.9830966 34.7951499,6.84533057 C34.5548528,5.99166458 33.97459,5.71166214 33.6168751,5.62424674" id="Fill-150" fill="#790008"></path>
                            <path d="M45.9883504,0.274151254 C46.2668766,0.249565673 46.5454027,0.227711824 46.8225635,0.205857975 C48.1264481,2.21094865 49.4439859,4.20238067 50.7765423,6.1774223 C50.5430719,6.19244682 50.3082361,6.20883721 50.0747657,6.2252276 C49.7143201,5.69527175 49.3566052,5.16121831 48.9975249,4.62853073 C48.1919836,4.68999468 47.3850771,4.76375142 46.5754398,4.85116682 C46.5740745,5.43302556 46.5727092,6.01625016 46.5727092,6.59947477 C46.3078363,6.62952381 46.0443287,6.66230458 45.7808212,6.69508536 C45.851818,4.54931053 45.9214496,2.40899916 45.9883504,0.274151254 M46.5877277,4.10540421 C47.2362567,4.0384768 47.8820551,3.98111044 48.5264881,3.93057342 C47.894343,2.96354059 47.2662939,1.99104429 46.6423407,1.01581627 C46.6368794,1.01718213 46.6314181,1.01718213 46.6259568,1.01718213 C46.6136689,2.04567891 46.601381,3.07554156 46.5877277,4.10540421" id="Fill-152" fill="#790008"></path>
                            <path d="M57.4335899,0.146033062 C57.7025587,0.16515518 57.9728929,0.182911433 58.2404964,0.204765282 C59.5662262,2.25766125 60.9028786,4.29689857 62.2518188,6.32384309 C62.0265404,6.30335511 61.8026272,6.28423299 61.5759834,6.26511087 C61.2128072,5.7201305 60.8496309,5.17515014 60.4864547,4.62743804 C59.7109506,4.56597409 58.9313505,4.51816879 58.1476544,4.48265629 C58.1654036,5.02353906 58.1845182,5.56578769 58.2022674,6.10667046 C57.9483171,6.09710941 57.6916361,6.09164594 57.4363205,6.08481662 C57.4390512,4.10021392 57.4376858,2.11970883 57.4335899,0.146033062 M58.1421931,3.79289417 C58.7675116,3.82430908 59.3900994,3.86391918 60.0113219,3.91172447 C59.3682542,2.92010606 58.7279172,1.92712178 58.0903108,0.930039907 C58.0862148,0.930039907 58.0807535,0.928674041 58.0752922,0.928674041 C58.0971374,1.88204822 58.1203479,2.83815413 58.1421931,3.79289417" id="Fill-154" fill="#790008"></path>
                            <path d="M54.5709147,0.795638733 C54.5668187,0.797004599 51.8580156,-1.08652404 50.5595923,0.937688754 C50.5609576,0.934957023 49.9506577,1.78452542 50.550035,3.48229633 C50.545939,3.49732086 51.5562789,6.22632029 54.4562275,6.18944192 C54.4562275,6.18807605 55.6563474,6.09383133 56.2939538,5.59802212 C55.9676413,4.64464794 55.6454248,3.6899079 55.3245736,2.73107026 C54.7006205,2.71877747 54.075302,2.71467988 53.4472529,2.71877747 C53.5086925,2.90453519 53.5687667,3.08892705 53.6302063,3.27195303 C54.0739367,3.2692213 54.5149364,3.2692213 54.9559361,3.2733189 C55.1675613,3.90298293 55.3805519,4.53264697 55.5921772,5.16094514 C55.5962731,5.15274994 53.9633454,6.14436835 52.445105,5.00933406 C52.445105,5.00796819 51.3801521,4.53264697 50.9883041,2.73516786 C50.9869387,2.74336305 50.6633569,0.525197348 52.7413803,0.645393519 C52.7427456,0.644027654 53.8923486,0.792907002 54.3551935,1.31466765 C54.4275556,1.14120273 54.4985525,0.967737797 54.5709147,0.795638733" id="Fill-156" fill="#790008"></path>
                            <path d="M44.788367,6.78605201 C44.5849337,6.81473518 44.3815004,6.84341836 44.1794325,6.8734674 C43.5418261,4.80964451 42.9137769,2.73079709 42.2939198,0.638291018 C42.4932571,0.610973707 42.6953251,0.58502226 42.8946624,0.559070814 C43.5172502,2.65021102 44.14803,4.72496084 44.788367,6.78605201" id="Fill-158" fill="#790008"></path>
                            <path d="M40.1337039,0.957084045 C40.6334125,2.67944054 41.1385825,4.39087012 41.6492137,6.0941045 C39.9644037,4.59301823 38.2932469,3.09466368 36.6371087,1.597675 L36.0254435,1.7247005 C36.6179942,3.85135321 37.2173715,5.96161554 37.8276714,8.05548748 C38.0338353,8.01041391 38.2399993,7.96397448 38.4475285,7.92026679 C37.9437239,6.20064202 37.4467459,4.47145619 36.9565945,2.7327093 C38.6209247,4.22969798 40.2975428,5.72532079 41.9905447,7.2250412 C42.1967087,7.18816283 42.400142,7.15401619 42.6063059,7.12123542 C41.9768915,5.04785146 41.355669,2.96217472 40.7412731,0.861473454 C40.5392052,0.891522497 40.3357719,0.924303271 40.1337039,0.957084045" id="Fill-160" fill="#790008"></path>
                        </g>
                    </g>
                </g>
            </g>
        </g>
    </g>
</svg>